<svg id="Capa_1" enable-background="new 0 0 512 512" height="512" viewBox="0 0 512 512" width="512" xmlns="http://www.w3.org/2000/svg"><g><g><path d="m406 450h-120c-8.291 0-15-6.709-15-15s6.709-15 15-15h105v-45c0-8.291 6.709-15 15-15s15 6.709 15 15v60c0 8.291-6.709 15-15 15z" fill="#59243f"/></g><g><path d="m226 450h-120c-8.291 0-15-6.709-15-15v-60c0-8.291 6.709-15 15-15s15 6.709 15 15v45h105c8.291 0 15 6.709 15 15s-6.709 15-15 15z" fill="#80334d"/></g><g><path d="m286 512h-60c-8.291 0-15-6.709-15-15v-122c0-8.291 6.709-15 15-15h60c8.291 0 15 6.709 15 15v122c0 8.291-6.709 15-15 15z" fill="#80334d"/></g><path d="m286 360h-30v152h30c8.291 0 15-6.709 15-15v-122c0-8.291-6.709-15-15-15z" fill="#59243f"/><path d="m497 60h-136l-12.475-30-17.525 30h-120l-14.852-30-15.148 30h-120l-14.554-30-15.446 30h-16c-8.401 0-15 6.599-15 15v300c0 8.399 6.599 15 15 15h482c8.401 0 15-6.601 15-15v-300c0-8.401-6.599-15-15-15z" fill="#f24973"/><path d="m497 60h-136l-12.475-30-17.525 30h-75v330h241c8.401 0 15-6.601 15-15v-300c0-8.401-6.599-15-15-15z" fill="#d92c49"/><g id="Billboard_1_"><g><g><path d="m136 120h-15v-60-15c0-24.901-20.099-45-45-45s-45 20.099-45 45v15h30v-15c0-8.401 6.599-15 15-15s15 6.599 15 15v15 60h-15c-8.401 0-15 6.599-15 15 0 8.399 6.599 15 15 15h60c8.401 0 15-6.601 15-15 0-8.401-6.599-15-15-15z" fill="#ffd580"/><path d="m301 135c0 8.399-6.599 15-15 15h-60c-8.401 0-15-6.601-15-15 0-8.401 6.599-15 15-15h15v-75c0-8.401-6.599-15-15-15s-15 6.599-15 15v15h-30v-15c0-24.901 20.099-45 45-45 11.7 0 22.2 4.499 30 11.7 9.3 8.099 15 20.099 15 33.3v75h15c8.401 0 15 6.599 15 15z" fill="#ffd580"/><path d="m436 120h-15v-60-15c0-24.901-20.099-45-45-45s-45 20.099-45 45v15h30v-15c0-8.401 6.599-15 15-15s15 6.599 15 15v15 60h-15c-8.401 0-15 6.599-15 15 0 8.399 6.599 15 15 15h60c8.401 0 15-6.601 15-15 0-8.401-6.599-15-15-15z" fill="#ffb366"/></g></g><g><path d="m226 330h-150c-8.291 0-15-6.709-15-15v-120c0-8.291 6.709-15 15-15h150c8.291 0 15 6.709 15 15v120c0 8.291-6.709 15-15 15z" fill="#ffe6b3"/></g><g><path d="m406 270h-120c-8.291 0-15-6.709-15-15s6.709-15 15-15h120c8.291 0 15 6.709 15 15s-6.709 15-15 15z" fill="#ffd580"/></g><g><path d="m406 330h-120c-8.291 0-15-6.709-15-15s6.709-15 15-15h120c8.291 0 15 6.709 15 15s-6.709 15-15 15z" fill="#ffd580"/></g></g><path d="m301 135c0 8.399-6.599 15-15 15h-30v-138.3c9.3 8.099 15 20.099 15 33.3v75h15c8.401 0 15 6.599 15 15z" fill="#ffb366"/></g></svg>