<svg width="15" height="15" viewBox="0 0 15 15" fill="none" xmlns="http://www.w3.org/2000/svg">
<path fill-rule="evenodd" clip-rule="evenodd" d="M0.30121 14.6988C-0.100403 14.2972 -0.100403 13.646 0.30121 13.2444L13.2444 0.301238C13.646 -0.100376 14.2971 -0.100376 14.6988 0.301238C15.1004 0.702852 15.1004 1.354 14.6988 1.75561L1.75558 14.6988C1.35397 15.1004 0.702824 15.1004 0.30121 14.6988Z" fill="#18206C"/>
<path fill-rule="evenodd" clip-rule="evenodd" d="M0.301329 0.30121C0.702942 -0.100403 1.35409 -0.100403 1.7557 0.30121L14.6989 13.2444C15.1005 13.646 15.1005 14.2971 14.6989 14.6988C14.2973 15.1004 13.6461 15.1004 13.2445 14.6988L0.301329 1.75558C-0.100285 1.35397 -0.100285 0.702824 0.301329 0.30121Z" fill="#18206C"/>
</svg>
