<svg width="19" height="14" viewBox="0 0 19 14" fill="none" xmlns="http://www.w3.org/2000/svg">
<path fill-rule="evenodd" clip-rule="evenodd" d="M0 1C0 0.447715 0.447715 0 1 0H18C18.5523 0 19 0.447715 19 1C19 1.55228 18.5523 2 18 2H1C0.447715 2 0 1.55228 0 1Z" fill="#18206C"/>
<path fill-rule="evenodd" clip-rule="evenodd" d="M0 7C0 6.44772 0.447715 6 1 6H18C18.5523 6 19 6.44772 19 7C19 7.55228 18.5523 8 18 8H1C0.447715 8 0 7.55228 0 7Z" fill="#18206C"/>
<path fill-rule="evenodd" clip-rule="evenodd" d="M0 13C0 12.4477 0.447715 12 1 12H18C18.5523 12 19 12.4477 19 13C19 13.5523 18.5523 14 18 14H1C0.447715 14 0 13.5523 0 13Z" fill="#18206C"/>
</svg>
